<svg xmlns="http://www.w3.org/2000/svg" width="20" height="20" viewBox="0 0 20 20">
  <path d="M10,0 C4.48508545,0 0,4.48508545 0,10 C0,15.514915 4.48508545,20 10,20 C15.514915,20 20,15.514915 20,10 C20,4.48508545 15.514915,0 10,0 Z M14.2857143,10.7142857 L10.7142857,10.7142857 L10.7142857,14.2857143 C10.7142857,14.6791293 10.3962057,15 10,15 C9.603795,15 9.28571429,14.6791293 9.28571429,14.2857143 L9.28571429,10.7142857 L5.71428571,10.7142857 C5.31808071,10.7142857 5,10.393415 5,10 C5,9.606585 5.31808071,9.28571429 5.71428571,9.28571429 L9.28571429,9.28571429 L9.28571429,5.71428571 C9.28571429,5.32087071 9.603795,5 10,5 C10.3962057,5 10.7142857,5.32087071 10.7142857,5.71428571 L10.7142857,9.28571429 L14.2857143,9.28571429 C14.68192,9.28571429 15,9.606585 15,10 C15,10.393415 14.68192,10.7142857 14.2857143,10.7142857 Z"/>
</svg>
