<svg xmlns="http://www.w3.org/2000/svg" width="20" height="20" viewBox="0 0 20 20">
  <path d="M10,0 C4.48199739,0 0,4.48199739 0,10 C0,15.5180026 4.48199739,20 10,20 C15.5180026,20 20,15.5180026 20,10 C20,4.48199739 15.5180026,0 10,0 Z M10,0.869565217 C15.0475543,0.869565217 19.1304348,4.95244565 19.1304348,10 C19.1304348,15.0475543 15.0475543,19.1304348 10,19.1304348 C4.95244565,19.1304348 0.869565217,15.0475543 0.869565217,10 C0.869565217,4.95244565 4.95244565,0.869565217 10,0.869565217 Z M7.82608696,6.95652174 L4.7826087,10 L7.82608696,13.0434783 L7.82608696,10.4347826 L15.6521739,10.4347826 L15.6521739,9.56521739 L7.82608696,9.56521739 L7.82608696,6.95652174 Z"/>
</svg>
