<svg xmlns="http://www.w3.org/2000/svg" width="20" height="20" viewBox="0 0 20 20">
  <path fill="#B18C51" d="M4.91304348,1 C4.48505435,1 4.13043478,1.35872396 4.13043478,1.79166667 L4.13043478,2.58333333 L1.7826087,2.58333333 C1.32863461,2.58333333 1,2.91577158 1,3.375 L1,6.14583333 L19,6.14583333 L19,3.375 C19,2.91577158 18.6713654,2.58333333 18.2173913,2.58333333 L15.8695652,2.58333333 L15.8695652,1.79166667 C15.8695652,1.35872396 15.5149457,1 15.0869565,1 L14.3043478,1 C13.8763587,1 13.5217391,1.35872396 13.5217391,1.79166667 L13.5217391,2.58333333 L6.47826087,2.58333333 L6.47826087,1.79166667 C6.47826087,1.35872396 6.1236413,1 5.69565217,1 L4.91304348,1 Z M4.91304348,1.79166667 L5.69565217,1.79166667 L5.69565217,4.16666667 L4.91304348,4.16666667 L4.91304348,1.79166667 Z M14.3043478,1.79166667 L15.0869565,1.79166667 L15.0869565,4.16666667 L14.3043478,4.16666667 L14.3043478,1.79166667 Z M1,6.9375 L1,19.2083333 C1,19.6675618 1.32863461,20 1.7826087,20 L18.2173913,20 C18.6713654,20 19,19.6675618 19,19.2083333 L19,6.9375 L1,6.9375 Z M4.91304348,9.3125 L6.86956522,9.3125 L6.86956522,11.2916667 L4.91304348,11.2916667 L4.91304348,9.3125 Z M7.65217391,9.3125 L9.60869565,9.3125 L9.60869565,11.2916667 L7.65217391,11.2916667 L7.65217391,9.3125 Z M10.3913043,9.3125 L12.3478261,9.3125 L12.3478261,11.2916667 L10.3913043,11.2916667 L10.3913043,9.3125 Z M13.1304348,9.3125 L15.0869565,9.3125 L15.0869565,11.2916667 L13.1304348,11.2916667 L13.1304348,9.3125 Z M4.91304348,12.0833333 L6.86956522,12.0833333 L6.86956522,14.0625 L4.91304348,14.0625 L4.91304348,12.0833333 Z M7.65217391,12.0833333 L9.60869565,12.0833333 L9.60869565,14.0625 L7.65217391,14.0625 L7.65217391,12.0833333 Z M10.3913043,12.0833333 L12.3478261,12.0833333 L12.3478261,14.0625 L10.3913043,14.0625 L10.3913043,12.0833333 Z M13.1304348,12.0833333 L15.0869565,12.0833333 L15.0869565,14.0625 L13.1304348,14.0625 L13.1304348,12.0833333 Z M4.91304348,14.8541667 L6.86956522,14.8541667 L6.86956522,16.8333333 L4.91304348,16.8333333 L4.91304348,14.8541667 Z M7.65217391,14.8541667 L9.60869565,14.8541667 L9.60869565,16.8333333 L7.65217391,16.8333333 L7.65217391,14.8541667 Z M10.3913043,14.8541667 L12.3478261,14.8541667 L12.3478261,16.8333333 L10.3913043,16.8333333 L10.3913043,14.8541667 Z M13.1304348,14.8541667 L15.0869565,14.8541667 L15.0869565,16.8333333 L13.1304348,16.8333333 L13.1304348,14.8541667 Z"/>
</svg>
