<svg xmlns="http://www.w3.org/2000/svg" width="20" height="20" viewBox="0 0 20 20">
  <path fill="#373737" d="M18.6313669,0.00442006918 C18.5028381,0.0138280209 18.3711742,0.0404832149 18.242645,0.067138409 C17.7285289,0.176895704 17.1767946,0.415225395 16.6375997,0.694321807 C15.5654795,1.24937931 14.5936747,1.95182472 14.179874,2.38771698 L14.1673346,2.38771698 L11.4588205,5.08460559 L1.82854848,3.78006412 C1.70158698,3.7659526 1.57619281,3.81299115 1.48998422,3.9055008 L0.123187796,5.31039161 C0.0307096175,5.40603698 -0.0100435271,5.54244947 0.0181702007,5.67259013 C0.0463838884,5.80429864 0.13729454,5.91248768 0.26112138,5.96266235 L7.6844561,8.87279331 L3.85993399,12.773874 L2.01663973,12.773874 C1.91945945,12.773874 1.82541382,12.8099372 1.75331197,12.8742234 L0.14826663,14.2289395 C0.0291421703,14.3261532 -0.0241503509,14.4813807 0.0103330452,14.6303369 C0.0448164413,14.7808609 0.162373373,14.8968901 0.311279047,14.9313849 L4.13580116,15.87216 L5.07625742,19.6979788 C5.11074101,19.8328234 5.214191,19.9394446 5.34585488,19.9802113 C5.47908608,20.0209784 5.62328937,19.9896192 5.72830709,19.8986774 L7.09510351,18.6944853 C7.18287943,18.6192233 7.2330371,18.5094664 7.2330371,18.3934373 L7.2330371,16.1481207 L11.170414,12.322302 L14.0419404,19.7481534 C14.0920981,19.8720223 14.2002504,19.9629636 14.3319143,19.9911871 C14.4620109,20.0194102 14.5983771,19.9786434 14.6939901,19.8861338 L16.0984047,18.518874 C16.190883,18.4326362 16.2379057,18.3071995 16.2237989,18.1801949 L14.9196996,8.54665795 L17.6282136,5.83722567 C18.0451494,5.42014891 18.7520587,4.42606302 19.3084954,3.35357941 C19.5874977,2.81733781 19.8257466,2.27168825 19.9354663,1.76053358 C20.0451864,1.24937931 20.0467537,0.710001592 19.6846779,0.330555436 C19.6799756,0.32585146 19.6768409,0.322715744 19.6721385,0.318011768 C19.4824799,0.136128583 19.2536354,0.048322907 19.0075494,0.0169637371 C18.8852903,0.00128435289 18.7598962,-0.00498748108 18.6313669,0.00442006918 Z M18.6689852,0.819758486 C18.8978297,0.804079102 19.0310609,0.851117656 19.0953254,0.907564162 C19.1721292,0.99380198 19.2285566,1.21018005 19.145483,1.5974659 C19.0608422,1.99102358 18.8523741,2.4927703 18.5937487,2.98981304 C18.0764979,3.98546679 17.3304026,4.9936642 17.0639398,5.26021694 L14.2174922,8.12017324 C14.128149,8.20327494 14.0826937,8.32400804 14.0920981,8.4463086 L15.3961974,18.0923893 L14.5811353,18.8826403 L11.6970695,11.4693326 C11.6500469,11.3438959 11.5418941,11.2498184 11.4117979,11.2184592 C11.2801341,11.1886679 11.1422005,11.2262989 11.0450198,11.3188086 L6.55590859,15.6965487 C6.47596971,15.7718107 6.43208175,15.8752962 6.43051443,15.985053 L6.43051443,18.2178259 L5.69068884,18.857553 L4.85054791,15.4456753 C4.81449699,15.3045593 4.70320997,15.1932341 4.56214133,15.157171 L1.26427472,14.3418325 L2.16711273,13.5766688 L4.02294641,13.5766688 C4.13266651,13.5751009 4.23611649,13.5311981 4.31135299,13.4512321 L8.68760944,8.99822999 C8.78008774,8.90101677 8.81770599,8.76303642 8.78792478,8.63132791 C8.75657624,8.50118725 8.66253061,8.39299822 8.53713644,8.34595926 L1.12634114,5.43582829 L1.91632439,4.60794621 L11.5591359,5.91248768 C11.6813954,5.92189563 11.8020872,5.87642453 11.8851607,5.787051 L14.7441477,2.93963837 C14.9761269,2.69346899 16.0012245,1.92673738 17.0012428,1.40931088 C17.5012521,1.15059783 18.0090985,0.94205945 18.4056574,0.85738949 C18.5028381,0.83700613 18.5921814,0.824462462 18.6689852,0.819758486 Z"/>
</svg>
