<svg xmlns="http://www.w3.org/2000/svg" width="20" height="20" viewBox="0 0 20 20">
  <path fill="#B18C51" d="M0,0 L0,0.833333333 L0,15.8333333 L0,16.6666667 L0.833333333,16.6666667 L5.83333333,16.6666667 L5.83333333,15 L1.66666667,15 L1.66666667,1.66666667 L11.6666667,1.66666667 L11.6666667,2.5 L13.3333333,2.5 L13.3333333,0.833333333 L13.3333333,0 L12.5,0 L0.833333333,0 L0,0 Z M6.66666667,3.33333333 L6.66666667,4.16666667 L6.66666667,19.1666667 L6.66666667,20 L7.5,20 L19.1666667,20 L20,20 L20,19.1666667 L20,4.16666667 L20,3.33333333 L19.1666667,3.33333333 L7.5,3.33333333 L6.66666667,3.33333333 Z M8.33333333,5 L18.3333333,5 L18.3333333,18.3333333 L8.33333333,18.3333333 L8.33333333,5 Z"/>
</svg>
