<svg xmlns="http://www.w3.org/2000/svg" width="20" height="20" viewBox="0 0 20 20">
    <path d="M15.9971056,1 C15.2304807,1 14.4638552,1.2914891 13.881354,1.8812461 L5.3781749,10.5039003 C5.34804574,10.5276263 5.32126407,10.5547416 5.2978299,10.5852461 C5.28778699,10.5937195 5.2794174,10.6021933 5.27104823,10.6123613 C5.25096198,10.6293086 5.23422366,10.6462554 5.2174849,10.6665919 C5.2174849,10.6716761 5.2174849,10.6750653 5.2174849,10.6801495 C4.47261991,11.5275015 4.49605365,12.8375076 5.2978299,13.649271 C6.12973531,14.4915388 7.4922528,14.4915388 8.32415821,13.649271 L14.7919307,7.08737692 C14.9191436,6.96366363 14.9576423,6.77216218 14.8890144,6.60777557 C14.8220602,6.44338938 14.6596961,6.33831795 14.4839415,6.34170714 C14.3717932,6.34679136 14.2663407,6.39424307 14.1893432,6.47728346 L7.72157071,13.0256199 C7.21774072,13.5357257 6.40424739,13.5357257 5.90041739,13.0256199 C5.41332573,12.5324609 5.40495656,11.7613709 5.86024489,11.24957 C5.87530947,11.2326232 5.88870031,11.2139814 5.90041739,11.1953395 C5.91046073,11.1868661 5.9188299,11.1783927 5.92719906,11.1682243 L5.96737156,11.141109 C5.96737156,11.1360248 5.96737156,11.1326356 5.96737156,11.1275514 L14.4973323,2.50489719 C15.3342594,1.65754517 16.671669,1.65585057 17.5102698,2.50489719 C18.3471969,3.35224921 18.3471969,4.70801244 17.5102698,5.55536446 L6.95829322,16.2387787 C5.78659531,17.4250716 3.89848783,17.4250716 2.72678992,16.2387787 C1.55509201,15.0524859 1.55509201,13.1408598 2.72678992,11.9545669 L11.1630149,3.41325856 C11.2902278,3.30818712 11.3488128,3.14041131 11.3119878,2.97771973 C11.2751632,2.81672273 11.149624,2.68961982 10.9906078,2.65233655 C10.8299178,2.61505284 10.6642065,2.67436759 10.5604274,2.8031651 L2.12420242,11.3444735 C0.626102849,12.8612337 0.624429102,15.3456696 2.12420242,16.8624298 C3.62397575,18.3791901 6.06278114,18.3791901 7.56088071,16.8624298 L18.1262481,6.17901555 C19.2912506,4.99950154 19.2912506,3.06076011 18.1262481,1.8812461 C17.5437469,1.2914891 16.7637311,1 15.9971056,1 Z" id="Shape"></path>
</svg>