<svg xmlns="http://www.w3.org/2000/svg" width="20" height="20" viewBox="0 0 20 20">
  <path fill="#B18C51" d="M13.3717478,14.7204469 L9.99999987,11.348699 L6.62825198,14.7204469 C6.25683305,15.0918659 5.65360645,15.0945005 5.27955283,14.7204469 C4.90549988,14.346394 4.90813389,13.7431667 5.27955283,13.3717478 L8.65130072,9.99999987 L5.27955283,6.62825198 C4.90549988,6.25419904 4.90813389,5.65097176 5.27955283,5.27955283 C5.65097176,4.90813389 6.25419904,4.90549988 6.62825198,5.27955283 L9.99999987,8.65130072 L13.3717478,5.27955283 C13.7431667,4.90813389 14.346394,4.90549988 14.7204469,5.27955283 C15.0945005,5.65360645 15.0918659,6.25683305 14.7204469,6.62825198 L11.348699,9.99999987 L14.7204469,13.3717478 C15.0945005,13.7458014 15.0918659,14.349028 14.7204469,14.7204469 C14.349028,15.0918659 13.7458014,15.0945005 13.3717478,14.7204469 Z"/>
</svg>
