<svg xmlns="http://www.w3.org/2000/svg" width="20" height="20" viewBox="0 0 20 20">
  <path fill="#373737" d="M5.6,2 C4.4359808,2 3.44422144,2.82767764 3.2625,3.95 C3.258132,3.9769784 3.240914,3.99768736 3.2375,4.025 L3.25,4.025 C3.2351922,4.0854332 3.22068436,4.1427256 3.2125,4.2 C3.09011324,4.28467 2.97376944,4.3749804 2.875,4.475 C2.40543896,4.9505048 2.20619296,5.5464004 2.0625,6.0375 C2.061484,6.04098 2.063512,6.046536 2.0625,6.05 C1.5442704,7.6455956 0.61360164,11.4222064 0.4,12.2875 C0.14979498,12.8094276 0,13.3839484 0,14 C0,16.2044012 1.79559888,18 4,18 C6.1542324,18 7.908332,16.2853464 7.9875,14.15 C8.440938,14.4845668 9.0963968,14.8 10,14.8 C10.9036032,14.8 11.559062,14.4845668 12.0125,14.15 C12.091668,16.2853464 13.8457676,18 16,18 C18.2044012,18 20,16.2044012 20,14 C20,13.548722 19.9261052,13.1176148 19.7875,12.7125 C19.7216652,12.450468 18.5410636,7.7569792 18.025,6.05 L18.025,6.0375 C17.8623648,5.5495944 17.6467216,4.9526928 17.175,4.475 C17.0570696,4.3555768 16.9255344,4.247392 16.775,4.15 C16.7678252,4.1080788 16.76055,4.0680552 16.75,4.025 L16.7625,4.025 C16.759086,3.99768736 16.7418684,3.97697828 16.7375,3.95 C16.5557784,2.82767764 15.5640192,2 14.4,2 C13.070476,2 12,3.0704762 12,4.4 C12,4.6941668 12.0491644,4.9773956 12.1375,5.2375 C11.952198,5.4536816 11.7955416,5.6482272 11.6875,5.75 C11.6421368,5.7927312 11.639382,5.7904084 11.625,5.8 C11.170612,5.4649464 10.6217524,5.2375 10.0375,5.2375 C9.4551144,5.2375 8.8812992,5.446274 8.4375,5.8 C8.422288,5.790216 8.420328,5.792268 8.375,5.75 C8.2580996,5.6409984 8.0816076,5.4271248 7.875,5.1875 C7.9542224,4.9409168 8,4.6760168 8,4.4 C8,3.0704762 6.929524,2 5.6,2 Z M5.6,2.8 C6.510476,2.8 7.2,3.4895238 7.2,4.4 C7.2,4.4339084 7.1896256,4.4655672 7.1875,4.5 C6.6802492,4.0641868 6.0258744,3.675 5.1625,3.675 C4.7754052,3.675 4.4282568,3.7119526 4.125,3.7875 C4.3449208,3.20598148 4.9177776,2.8 5.6,2.8 Z M14.4,2.8 C15.0761332,2.8 15.6382504,3.20180756 15.8625,3.775 C15.5827588,3.71024616 15.2751172,3.675 14.925,3.675 C14.0275944,3.675 13.3347112,4.0927592 12.8125,4.55 C12.8077956,4.4982424 12.8,4.4507228 12.8,4.4 C12.8,3.4895238 13.489524,2.8 14.4,2.8 Z M5.1625,4.475 C5.9616304,4.475 6.5123008,4.9046364 6.975,5.3875 C6.98045635,5.58975071 7.13606159,5.75608735 7.3375,5.775 C7.5078384,5.9735552 7.6700316,6.1688468 7.8375,6.325 C7.9516716,6.4314572 8.0667164,6.53322 8.25,6.5875 C8.4332836,6.64178 8.692046,6.601364 8.85,6.475 L8.8625,6.4625 C9.1304056,6.224362 9.620064,6.0375 10.0375,6.0375 C10.454936,6.0375 10.893564,6.2098512 11.225,6.475 L11.225,6.4625 L11.2375,6.4625 C11.3923168,6.5884268 11.6464904,6.6422072 11.825,6.5875 C12.0071464,6.531678 12.1127548,6.4307324 12.225,6.325 C12.3933676,6.1664012 12.5615192,5.9663188 12.7375,5.7625 C12.8769847,5.72008199 12.9823483,5.60513988 13.0125,5.4625 C13.4959956,4.9476624 14.0821936,4.475 14.925,4.475 C15.4522224,4.475 15.8258172,4.5554132 16.1125,4.6875 C16.1613423,4.73522321 16.2215878,4.76964923 16.2875,4.7875 C16.2997864,4.79228207 16.3123017,4.79645383 16.325,4.8 C16.4334364,4.8701784 16.5293448,4.953292 16.6125,5.0375 C16.9282732,5.35727 17.1060984,5.8069576 17.2625,6.275 C17.26338,6.27792 17.26162,6.284576 17.2625,6.2875 C17.5705744,7.3082632 18.0830112,9.2473676 18.5,10.875 C17.8144616,10.3241436 16.9451372,10 16,10 C14.1868256,10 12.6508068,11.217106 12.1625,12.875 C12.1334079,12.900394 12.1081458,12.9298664 12.0875,12.9625 C12.0875,12.9625 11.5721212,14 10,14 C8.4278788,14 7.9125,12.9625 7.9125,12.9625 C7.89289443,12.9254426 7.86758554,12.8916974 7.8375,12.8625 C7.345458,11.2105388 5.808946,10 4,10 C3.09435852,10 2.25897948,10.3025264 1.5875,10.8125 C2.0011662,9.1880444 2.50237228,7.278428 2.825,6.2875 L2.825,6.275 C2.96093812,5.8089264 3.12159328,5.3574056 3.4375,5.0375 C3.75340672,4.7175944 4.2371668,4.475 5.1625,4.475 Z M10,10 C9.1210824,10 8.4,10.7210824 8.4,11.6 C8.4,12.4789176 9.1210824,13.2 10,13.2 C10.8789176,13.2 11.6,12.4789176 11.6,11.6 C11.6,10.7210824 10.8789176,10 10,10 Z M4,10.8 C5.7720492,10.8 7.2,12.2279508 7.2,14 C7.2,15.7720492 5.7720492,17.2 4,17.2 C2.22795096,17.2 0.8,15.7720492 0.8,14 C0.8,13.7600352 0.82532084,13.5246536 0.875,13.3 C0.954667507,13.2385021 1.00822774,13.149235 1.025,13.05 C1.025,13.05 1.13001436,12.6180668 1.15,12.5375 C1.67965796,11.5044008 2.75553828,10.8 4,10.8 Z M10,10.8 C10.4465656,10.8 10.8,11.1534344 10.8,11.6 C10.8,12.0465656 10.4465656,12.4 10,12.4 C9.5534344,12.4 9.2,12.0465656 9.2,11.6 C9.2,11.1534344 9.5534344,10.8 10,10.8 Z M16,10.8 C17.3932636,10.8 18.5714624,11.6863348 19.0125,12.925 C19.0140768,12.9312724 19.05,13.0625 19.05,13.0625 C19.0607644,13.1023544 19.0776306,13.1403034 19.1,13.175 C19.1696316,13.4381608 19.2,13.7144308 19.2,14 C19.2,15.7720492 17.7720492,17.2 16,17.2 C14.2279508,17.2 12.8,15.7720492 12.8,14 C12.8,12.2279508 14.2279508,10.8 16,10.8 Z M1.9625,13.5875 C1.94558198,13.5905876 1.92888066,13.5947629 1.9125,13.6 C1.7262486,13.6417113 1.59540557,13.8091904 1.6,14 C1.6,15.329524 2.6704762,16.4 4,16.4 C4.14425437,16.4020401 4.27843255,16.3262499 4.35115509,16.2016509 C4.42387763,16.0770518 4.42387763,15.9229482 4.35115509,15.7983491 C4.27843255,15.6737501 4.14425437,15.5979599 4,15.6 C3.0895238,15.6 2.4,14.910476 2.4,14 C2.40409903,13.8849337 2.35842031,13.7736805 2.27464617,13.6946935 C2.19087204,13.6157064 2.07712649,13.5766453 1.9625,13.5875 Z M14.3625,13.5875 C14.345582,13.5905876 14.3288807,13.5947629 14.3125,13.6 C14.1262486,13.6417113 13.9954056,13.8091904 14,14 C14,15.329524 15.070476,16.4 16.4,16.4 C16.5442544,16.4020401 16.6784325,16.3262499 16.7511551,16.2016509 C16.8238776,16.0770518 16.8238776,15.9229482 16.7511551,15.7983491 C16.6784325,15.6737501 16.5442544,15.5979599 16.4,15.6 C15.489524,15.6 14.8,14.910476 14.8,14 C14.804099,13.8849337 14.7584203,13.7736805 14.6746462,13.6946935 C14.590872,13.6157064 14.4771265,13.5766453 14.3625,13.5875 Z"/>
</svg>
