<svg xmlns="http://www.w3.org/2000/svg" width="20" height="20" viewBox="0 0 20 20">
  <path fill="#000000" d="M10,0 C4.4890624,0 0,4.03220653 0,9.05612245 C0,11.5242347 1.1093752,13.7404339 2.8875,15.3826531 C2.61875,16.2292731 2.01875,16.8973216 1.4125,17.4107143 C1.0859376,17.6865433 0.7734376,17.9225127 0.525,18.1505102 C0.4015624,18.2637118 0.2890624,18.3785078 0.2,18.5204082 C0.1109376,18.6623086 0.03125,18.8647959 0.0875,19.0816327 L0.1375,19.247449 L0.275,19.3367347 C0.7906252,19.6396686 1.4328124,19.6922833 2.125,19.6428571 C2.8171876,19.593431 3.5718752,19.4308037 4.3125,19.2219388 C5.75,18.8169645 7.1,18.2397959 7.8125,17.9209184 C8.5156252,18.070791 9.2218752,18.1632653 9.9625,18.1632653 C15.4734376,18.1632653 19.9625,14.1310588 19.9625,9.10714286 C19.9625,4.08482163 15.5125,0 10,0 Z M10,0.816326531 C15.1281252,0.816326531 19.1625,4.57748735 19.1625,9.10714286 C19.1625,13.6336098 15.0921876,17.3469388 9.9625,17.3469388 C9.23125,17.3469388 8.5421876,17.2735971 7.85,17.1173469 L7.7125,17.0790816 L7.6,17.1428571 C6.93125,17.4441963 5.5171876,18.0325257 4.1,18.4311224 C3.3906252,18.6304208 2.6843752,18.783482 2.075,18.8265306 C1.6671876,18.8552298 1.4156252,18.7563776 1.1375,18.6862245 C1.3359376,18.5124363 1.6078124,18.3051657 1.925,18.0357143 C2.6218752,17.445791 3.4578124,16.6246812 3.75,15.4081633 L3.8125,15.1530612 L3.6125,15 C1.85,13.4757653 0.8,11.377551 0.8,9.05612245 C0.8,4.52965551 4.8703124,0.816326531 10,0.816326531 Z M9.525,4.82142857 C9.4046876,4.82142857 9.3625,4.89317592 9.3625,4.9744898 L9.3625,6.04591837 C9.3625,6.16868612 9.4453124,6.19897959 9.525,6.19897959 L10.475,6.19897959 C10.5953124,6.19897959 10.6375,6.12723224 10.6375,6.04591837 L10.6375,4.9744898 C10.6375,4.85172204 10.5546876,4.82142857 10.475,4.82142857 L9.525,4.82142857 Z M9.5625,7.79336735 C9.4421876,7.79336735 9.4,7.8778698 9.4,7.95918367 L9.4,13.4311224 C9.4,13.5538902 9.4828124,13.5969388 9.5625,13.5969388 L9.5625,13.6352041 L10.475,13.6352041 C10.5953124,13.6352041 10.6375,13.5507016 10.6375,13.4693878 L10.6375,7.95918367 C10.6375,7.83641592 10.5546876,7.79336735 10.475,7.79336735 L9.5625,7.79336735 Z"/>
</svg>
