<?xml version="1.0" encoding="UTF-8"?>
<svg width="20px" height="20px" viewBox="0 0 20 20" version="1.1" xmlns="http://www.w3.org/2000/svg" xmlns:xlink="http://www.w3.org/1999/xlink">
    <!-- Generator: Sketch 41.2 (35397) - http://www.bohemiancoding.com/sketch -->
    <title>Shape</title>
    <desc>Created with Sketch.</desc>
    <defs></defs>
    <g id="Page-1" stroke="none" stroke-width="1" fill="none" fill-rule="evenodd">
        <path d="M16.6059887,0 C15.744769,0 14.8842534,0.333632082 14.2153432,1.00257069 L1.3881167,13.8303342 L1.20817565,14.0102828 L1.15676392,14.2673522 L0.257058648,18.7917738 L0,20 L1.20817565,19.7429306 L5.73240785,18.8431877 L5.9894665,18.7917738 L6.16940755,18.6118252 L18.9966341,5.7840617 C20.3344553,4.44618447 20.3344553,2.34044792 18.9966341,1.00257069 C18.3277239,0.333632082 17.4672083,0 16.6059887,0 Z M16.6059887,1.56812339 C17.0197799,1.56812339 17.4394164,1.7589129 17.8398702,2.15938303 C18.6407769,2.96032329 18.6407769,3.8263091 17.8398702,4.62724936 L17.2486353,5.19280206 L14.8065781,2.75064267 L15.3721071,2.15938303 C15.7725609,1.7589129 16.1921974,1.56812339 16.6059887,1.56812339 Z M13.6498142,3.90745501 L16.0918714,6.3496144 L6.14370169,16.2982005 C5.60543486,15.244758 4.75504331,14.3943305 3.70164453,13.8560411 L13.6498142,3.90745501 Z M2.64770407,15.1928021 C3.63405596,15.5925084 4.40730688,16.3657921 4.80699672,17.3521851 L2.10788091,17.8920308 L2.64770407,15.1928021 Z" id="Shape" fill="#FFFFFF"></path>
    </g>
</svg>