<svg xmlns="http://www.w3.org/2000/svg" width="20" height="20" viewBox="0 0 20 20">
  <path  d="M10,0 L7.23076923,2.85714286 L9.30769231,2.85714286 L9.30769231,5.71428571 L1,5.71428571 L1,7.14285714 L19,7.14285714 L19,5.71428571 L10.6923077,5.71428571 L10.6923077,2.85714286 L12.7692308,2.85714286 L10,0 Z M1,9.28571429 L1,10.7142857 L19,10.7142857 L19,9.28571429 L1,9.28571429 Z M1,12.8683036 L1,14.296875 L9.30769231,14.296875 L9.30769231,17.1428571 L7.23076923,17.1428571 L10,20 L12.7692308,17.1428571 L10.6923077,17.1428571 L10.6923077,14.296875 L19,14.296875 L19,12.8683036 L1,12.8683036 Z"/>
</svg>
