<svg xmlns="http://www.w3.org/2000/svg" width="20" height="20" viewBox="0 0 20 20">
  <path fill="#B18C51" d="M7.97653959,0 C3.56671578,0 0,3.48495725 0,7.79369628 C0,12.1024358 3.56671578,15.5873926 7.97653959,15.5873926 C9.5509532,15.5873926 11.0080648,15.1361032 12.2434018,14.3696275 L18.0058651,20 L20,18.0515759 L14.3108504,12.5071633 C15.3335779,11.1962751 15.9530792,9.57199129 15.9530792,7.79369628 C15.9530792,3.48495725 12.3863639,0 7.97653959,0 Z M7.97653959,1.83381089 C11.3544723,1.83381089 14.0762463,4.49319473 14.0762463,7.79369628 C14.0762463,11.0941978 11.3544723,13.7535817 7.97653959,13.7535817 C4.59860692,13.7535817 1.87683284,11.0941978 1.87683284,7.79369628 C1.87683284,4.49319473 4.59860692,1.83381089 7.97653959,1.83381089 Z"/>
</svg>
