<svg xmlns="http://www.w3.org/2000/svg" width="20" height="20" viewBox="0 0 20 20">
  <path  d="M8.3,0 C7.8561113,0 7.39860135,0.154557917 7.078125,0.46875 C6.75764865,0.782942083 6.6,1.2314815 6.6,1.66666667 L6.6,2.5 L1.5,2.5 L1.5,4.16666667 L2.35,4.16666667 L2.35,17.5 C2.35,18.8712125 3.50136368,20 4.9,20 L15.1,20 C16.4986367,20 17.65,18.8712125 17.65,17.5 L17.65,4.16666667 L18.5,4.16666667 L18.5,2.5 L13.4,2.5 L13.4,1.66666667 C13.4,1.2314815 13.2423513,0.782942083 12.921875,0.46875 C12.6013987,0.154557917 12.1438887,0 11.7,0 L8.3,0 Z M8.3,1.66666667 L11.7,1.66666667 L11.7,2.5 L8.3,2.5 L8.3,1.66666667 Z M4.05,4.16666667 L15.95,4.16666667 L15.95,17.5 C15.95,17.9621208 15.5713633,18.3333333 15.1,18.3333333 L4.9,18.3333333 C4.42863675,18.3333333 4.05,17.9621208 4.05,17.5 L4.05,4.16666667 Z M5.75,6.66666667 L5.75,15.8333333 L7.45,15.8333333 L7.45,6.66666667 L5.75,6.66666667 Z M9.15,6.66666667 L9.15,15.8333333 L10.85,15.8333333 L10.85,6.66666667 L9.15,6.66666667 Z M12.55,6.66666667 L12.55,15.8333333 L14.25,15.8333333 L14.25,6.66666667 L12.55,6.66666667 Z"/>
</svg>
