<?xml version="1.0" encoding="UTF-8"?>
<svg width="18px" height="20px" viewBox="0 0 18 20" version="1.1" xmlns="http://www.w3.org/2000/svg" xmlns:xlink="http://www.w3.org/1999/xlink">
    <!-- Generator: Sketch 41.2 (35397) - http://www.bohemiancoding.com/sketch -->
    <title>Shape</title>
    <desc>Created with Sketch.</desc>
    <defs></defs>
    <g id="Page-1" stroke="none" stroke-width="1" fill="none" fill-rule="evenodd">
        <path d="M7.3,0 C6.8561113,0 6.39860135,0.154557917 6.078125,0.46875 C5.75764865,0.782942083 5.6,1.2314815 5.6,1.66666667 L5.6,2.5 L0.5,2.5 L0.5,4.16666667 L1.35,4.16666667 L1.35,17.5 C1.35,18.8712125 2.50136368,20 3.9,20 L14.1,20 C15.4986367,20 16.65,18.8712125 16.65,17.5 L16.65,4.16666667 L17.5,4.16666667 L17.5,2.5 L12.4,2.5 L12.4,1.66666667 C12.4,1.2314815 12.2423513,0.782942083 11.921875,0.46875 C11.6013987,0.154557917 11.1438887,0 10.7,0 L7.3,0 Z M7.3,1.66666667 L10.7,1.66666667 L10.7,2.5 L7.3,2.5 L7.3,1.66666667 Z M3.05,4.16666667 L14.95,4.16666667 L14.95,17.5 C14.95,17.9621208 14.5713633,18.3333333 14.1,18.3333333 L3.9,18.3333333 C3.42863675,18.3333333 3.05,17.9621208 3.05,17.5 L3.05,4.16666667 Z M4.75,6.66666667 L4.75,15.8333333 L6.45,15.8333333 L6.45,6.66666667 L4.75,6.66666667 Z M8.15,6.66666667 L8.15,15.8333333 L9.85,15.8333333 L9.85,6.66666667 L8.15,6.66666667 Z M11.55,6.66666667 L11.55,15.8333333 L13.25,15.8333333 L13.25,6.66666667 L11.55,6.66666667 Z" id="Shape" fill="#FFFFFF"></path>
    </g>
</svg>