<?xml version="1.0" encoding="UTF-8"?>
<svg width="200px" height="60px" viewBox="0 0 200 60" version="1.1" xmlns="http://www.w3.org/2000/svg" xmlns:xlink="http://www.w3.org/1999/xlink">
    <!-- Generator: Sketch 48.1 (47250) - http://www.bohemiancoding.com/sketch -->
    <title>assets/logo-planetafrica</title>
    <desc>Created with Sketch.</desc>
    <defs></defs>
    <g id="Symbols" stroke="none" stroke-width="1" fill="none" fill-rule="evenodd">
        <g id="assets/logo-planetafrica">
            <g id="Page-1" transform="translate(0.000000, 4.000000)">
                <path d="M141.609438,28.7376149 C126.974607,20.3354234 113.16,17.2636787 101.373483,16.8182532 L101.319551,16.7832957 C101.319551,16.7832957 100.853258,16.2217213 100.946517,14.8155298 C101.039775,13.410466 102.393708,12.191466 102.393708,12.191466 C102.393708,12.191466 104.915056,10.2710617 105.662247,10.3172957 C106.409438,10.3646574 106.53191,11.2182957 106.53191,11.2182957 C109.473483,13.5142106 112.991461,13.5040617 113.598202,13.5040617 C114.204944,13.5040617 115.23191,12.3324234 114.625169,12.0978702 C113.840899,11.7945298 114.811685,9.66099787 114.811685,9.66099787 C117.708315,7.69323191 116.846517,5.05901915 116.846517,5.05901915 C116.846517,5.05901915 115.745393,7.97514681 112.991461,9.00582766 C110.220674,10.0421468 109.351011,5.41987021 109.351011,5.41987021 C111.357753,4.97444468 110.937528,2.30527447 110.937528,2.30527447 C110.937528,2.30527447 110.510562,2.84767872 109.436404,3.12959362 C108.364494,3.41038085 107.343146,4.17944468 107.343146,4.17944468 C107.343146,4.17944468 103.856629,0.281125532 102.113933,0.055593617 C99.218427,-0.318789362 96.6510112,1.32082766 93.8498876,1.55538085 C91.2105618,1.77640213 86.1925843,0.618295745 84.3723596,0.711891489 C82.5498876,0.805487234 80.8240449,4.36663617 80.8240449,4.36663617 C80.8240449,4.84701915 80.5173034,5.42889149 80.471236,5.93521064 C80.4206742,6.50129574 80.4442697,7.07189149 80.5139326,7.63572128 C80.5959551,8.28976383 80.7240449,8.93816809 80.8970787,9.57304043 C81.0060674,9.97674255 80.9577528,10.4018702 81.2858427,10.7153596 C81.3004494,10.7277638 81.3139326,10.7401681 81.3274157,10.7514447 C81.9510112,11.2837 82.7970787,10.6262745 83.448764,11.0965085 C84.2476404,11.6727426 83.7622472,12.8691894 84.1510112,13.6405085 C84.3970787,14.1276574 84.8746067,14.4355085 85.0723596,14.9564872 C85.3689888,15.7368277 85.107191,17.2512745 84.9847191,17.8455511 C83.5959551,18.074466 82.2622472,18.329317 80.9925843,18.604466 C65.571236,21.9479766 55.748764,28.7049128 55.6532584,28.7725723 C55.3139326,29.0082532 55.2296629,29.4751043 55.465618,29.8156574 C55.7004494,30.155083 56.165618,30.2419128 56.5049438,30.0039766 C56.5993258,29.9385723 66.1757303,23.3507851 81.3083146,20.0704234 C95.2813483,17.0415298 116.955506,16.311934 140.867865,30.038934 C140.983596,30.1065936 141.112809,30.1381681 141.238652,30.1381681 C141.495955,30.1381681 141.749888,30.0028489 141.886966,29.7604021 C142.092584,29.4018064 141.966742,28.9428489 141.609438,28.7376149 M89.9835955,17.1802319 C89.8689888,17.106934 89.7532584,17.0381468 89.6948315,17.0178489 C89.554382,16.9716149 88.7611236,15.7526149 88.4341573,15.050083 C88.107191,14.3475511 88.4802247,12.5669766 88.4802247,12.5669766 C89.4139326,12.1452319 90.4420225,12.5196149 90.4420225,12.5196149 C95.3442697,13.6912532 97.2116854,11.9580404 97.7251685,11.6761255 C98.2386517,11.3953383 98.6577528,12.0978702 98.6577528,12.0978702 C98.6577528,12.0978702 98.9847191,14.2065936 99.0779775,15.050083 C99.1319101,15.5417426 98.9813483,16.2521681 98.8442697,16.7629979 C95.7274157,16.7415723 92.7644944,16.8960617 89.9835955,17.1802319" id="Fill-1" fill="#A9431E"></path>
                <path d="M1.17651685,45.7290766 C1.17651685,43.6519277 1.17651685,43.2741617 1.14505618,42.8479064 C1.11359551,42.3923319 1.03494382,42.1713106 0.57988764,42.1081617 C0.469775281,42.0923745 0.23494382,42.0765872 0.110224719,42.0765872 C0.0619101124,42.0765872 0.000112359551,42.014566 0.000112359551,41.9672043 C0.000112359551,41.8882681 0.0619101124,41.855566 0.219213483,41.855566 C0.847303371,41.855566 1.70910112,41.8882681 1.81921348,41.8882681 C2.11808989,41.8882681 3.15292135,41.855566 3.77988764,41.855566 C5.55292135,41.855566 6.18101124,42.4081191 6.4158427,42.6122255 C6.72932584,42.8963957 7.10573034,43.4940553 7.10573034,44.2180128 C7.10573034,46.138417 5.66303371,47.4138 3.54505618,47.4138 C3.46640449,47.4138 3.23157303,47.4138 3.15292135,47.3980128 C3.09,47.3980128 3.01134831,47.3359915 3.01134831,47.2728426 C3.01134831,47.1623319 3.09,47.1307574 3.37314607,47.1307574 C4.86303371,47.1307574 5.92932584,46.1869064 5.92932584,44.9735447 C5.92932584,44.5337574 5.88325843,43.6665872 5.14505618,42.9426298 C4.42370787,42.2186723 3.59224719,42.2976085 3.27876404,42.2976085 C3.04280899,42.2976085 2.65067416,42.3596298 2.51022472,42.3923319 C2.43157303,42.4081191 2.40011236,42.5017149 2.40011236,42.6438 L2.40011236,48.0915234 C2.40011236,49.381566 2.40011236,50.4370553 2.46303371,50.9884809 C2.51022472,51.382034 2.58775281,51.6335021 3.01134831,51.6966511 C3.20011236,51.7282255 3.49786517,51.7598 3.62370787,51.7598 C3.70235955,51.7598 3.73382022,51.8229489 3.73382022,51.8703106 C3.73382022,51.9334596 3.67089888,51.9808213 3.51359551,51.9808213 C2.76078652,51.9808213 1.85067416,51.9334596 1.78775281,51.9334596 C1.74168539,51.9334596 0.847303371,51.9808213 0.423707865,51.9808213 C0.282134831,51.9808213 0.203483146,51.9481191 0.203483146,51.8703106 C0.203483146,51.8229489 0.23494382,51.7598 0.313595506,51.7598 C0.439438202,51.7598 0.611348315,51.7282255 0.737191011,51.6966511 C1.00348315,51.6335021 1.03494382,51.382034 1.09786517,50.9884809 C1.17651685,50.4370553 1.17651685,49.381566 1.17651685,48.0915234 L1.17651685,45.7290766 Z" id="Fill-3" fill="#000000"></path>
                <path d="M11.8434831,48.122534 C11.8434831,50.0914277 11.8749438,50.8931936 12.1266292,51.1300021 C12.3457303,51.3510234 12.8794382,51.4446191 13.9614607,51.4446191 C14.6839326,51.4446191 15.2951685,51.4299596 15.624382,51.0364064 C15.7974157,50.8311723 15.9075281,50.5481298 15.9547191,50.2808745 C15.9693258,50.1850234 16.0176404,50.1072149 16.0951685,50.1072149 C16.1580899,50.1072149 16.1895506,50.1703638 16.1895506,50.3113213 C16.1895506,50.4534064 16.0951685,51.2563 15.9850562,51.6498532 C15.8917978,51.9655979 15.8446067,52.0118319 15.1064045,52.0118319 C14.118764,52.0118319 13.3491011,51.9960447 12.7064045,51.9655979 C12.0794382,51.948683 11.6086517,51.9328957 11.2007865,51.9328957 C11.1378652,51.9328957 10.9019101,51.9328957 10.635618,51.948683 C10.3535955,51.9655979 10.0558427,51.9802574 9.83561798,51.9802574 C9.69404494,51.9802574 9.61651685,51.948683 9.61651685,51.8697468 C9.61651685,51.8223851 9.64685393,51.7603638 9.72550562,51.7603638 C9.85134831,51.7603638 10.0232584,51.7287894 10.1491011,51.6972149 C10.4165169,51.634066 10.4479775,51.3825979 10.5097753,50.9890447 C10.588427,50.4376191 10.588427,49.3821298 10.588427,48.0909596 L10.588427,45.7296404 C10.588427,43.6513638 10.588427,43.2735979 10.5569663,42.8484702 C10.5255056,42.3917681 10.4479775,42.1707468 9.99292135,42.1087255 C9.88280899,42.0929383 9.64685393,42.0760234 9.52213483,42.0760234 C9.47494382,42.0760234 9.41202247,42.0140021 9.41202247,41.9666404 C9.41202247,41.8888319 9.47494382,41.8561298 9.6311236,41.8561298 C10.2592135,41.8561298 11.1221348,41.8888319 11.2007865,41.8888319 C11.2637079,41.8888319 12.2985393,41.8561298 12.7221348,41.8561298 C12.8637079,41.8561298 12.9423596,41.8888319 12.9423596,41.9666404 C12.9423596,42.0140021 12.8794382,42.0613638 12.8322472,42.0613638 C12.7378652,42.0613638 12.5333708,42.0760234 12.377191,42.0929383 C11.9693258,42.1707468 11.8906742,42.3759809 11.8592135,42.8484702 C11.8434831,43.2735979 11.8434831,43.6513638 11.8434831,45.7296404 L11.8434831,48.122534 Z" id="Fill-5" fill="#000000"></path>
                <path d="M21.6639326,42.1236106 C21.8358427,41.6826957 21.898764,41.6037596 21.9931461,41.6037596 C22.1335955,41.6037596 22.1819101,41.7932064 22.3223596,42.0920362 C22.5729213,42.6592489 24.7852809,48.1859085 25.6324719,50.2168234 C26.1347191,51.4132702 26.5111236,51.5869298 26.81,51.6816532 C27.0133708,51.7436745 27.2167416,51.7594617 27.3583146,51.7594617 C27.4369663,51.7594617 27.5313483,51.7910362 27.5313483,51.8699723 C27.5313483,51.9489085 27.3740449,51.980483 27.2167416,51.980483 C27.0133708,51.980483 25.9942697,51.980483 25.0369663,51.9489085 C24.7695506,51.9331213 24.5504494,51.9331213 24.5504494,51.8541851 C24.5504494,51.7910362 24.5819101,51.7910362 24.6448315,51.7594617 C24.7234831,51.7290149 24.8639326,51.6185043 24.7695506,51.397483 L23.5302247,48.3279936 C23.498764,48.2648447 23.4841573,48.2479298 23.4055056,48.2479298 L20.2201124,48.2479298 C20.1583146,48.2479298 20.11,48.2806319 20.0796629,48.3584404 L19.2942697,50.499866 C19.1695506,50.8313979 19.0908989,51.1618021 19.0908989,51.397483 C19.0908989,51.665866 19.3257303,51.7594617 19.5616854,51.7594617 L19.6864045,51.7594617 C19.7965169,51.7594617 19.8279775,51.8068234 19.8279775,51.8699723 C19.8279775,51.9489085 19.7493258,51.980483 19.6234831,51.980483 C19.2942697,51.980483 18.5414607,51.9331213 18.3852809,51.9331213 C18.2437079,51.9331213 17.5526966,51.980483 16.9886517,51.980483 C16.815618,51.980483 16.7223596,51.9489085 16.7223596,51.8699723 C16.7223596,51.8068234 16.7841573,51.7594617 16.8470787,51.7594617 C16.9414607,51.7594617 17.1459551,51.7436745 17.2549438,51.7290149 C17.8830337,51.6489511 18.1493258,51.1775894 18.4167416,50.499866 L21.6639326,42.1236106 Z M23.2010112,47.6976319 C23.2639326,47.6976319 23.2639326,47.6660574 23.2482022,47.6029085 L21.8830337,43.9346319 C21.804382,43.7305255 21.7268539,43.7305255 21.6482022,43.9346319 L20.3616854,47.6029085 C20.3459551,47.6660574 20.3616854,47.6976319 20.4088764,47.6976319 L23.2010112,47.6976319 Z" id="Fill-7" fill="#000000"></path>
                <path d="M30.3702247,50.1543511 C30.4016854,51.2560745 30.5275281,51.5876064 30.9039326,51.6812021 C31.1544944,51.7443511 31.4679775,51.7601383 31.5938202,51.7601383 C31.6567416,51.7601383 31.7039326,51.8075 31.7039326,51.8706489 C31.7039326,51.9484574 31.6095506,51.9811596 31.4533708,51.9811596 C30.6679775,51.9811596 30.1196629,51.9337979 29.9938202,51.9337979 C29.8679775,51.9337979 29.2870787,51.9811596 28.6601124,51.9811596 C28.5185393,51.9811596 28.4410112,51.9653723 28.4410112,51.8706489 C28.4410112,51.8075 28.4870787,51.7601383 28.55,51.7601383 C28.6601124,51.7601383 28.9106742,51.7443511 29.1151685,51.6812021 C29.4601124,51.5876064 29.5073034,51.2245 29.5073034,50.012266 L29.5073034,42.3453085 C29.5073034,41.8085426 29.5859551,41.6675851 29.6960674,41.6675851 C29.8522472,41.6675851 30.0882022,41.9348404 30.2286517,42.0769255 C30.4488764,42.2968191 32.4567416,44.4382447 34.5904494,46.6428191 C35.955618,48.0602872 37.4297753,49.6502872 37.8533708,50.0912021 L37.7129213,43.383883 C37.6960674,42.5178404 37.6185393,42.2190106 37.1949438,42.1400745 C36.9432584,42.0927128 36.6297753,42.0769255 36.5196629,42.0769255 C36.4264045,42.0769255 36.4106742,41.9979894 36.4106742,41.9506277 C36.4106742,41.8716915 36.5196629,41.8559043 36.6769663,41.8559043 C37.3039326,41.8559043 37.9634831,41.8886064 38.1207865,41.8886064 C38.2769663,41.8886064 38.7320225,41.8559043 39.297191,41.8559043 C39.4376404,41.8559043 39.5477528,41.8716915 39.5477528,41.9506277 C39.5477528,41.9979894 39.4859551,42.0769255 39.3904494,42.0769255 C39.3275281,42.0769255 39.2185393,42.0769255 39.061236,42.1085 C38.6073034,42.2020957 38.5747191,42.4704787 38.5747191,43.2745 L38.544382,51.115117 C38.544382,51.9969468 38.5286517,52.0747553 38.4342697,52.0747553 C38.2926966,52.0747553 38.1522472,51.9653723 37.3825843,51.2560745 C37.2421348,51.1297766 35.2488764,49.1620106 33.7904494,47.6351596 C32.1904494,45.9504362 30.6376404,44.3130745 30.2129213,43.8394574 L30.3702247,50.1543511 Z" id="Fill-9" fill="#000000"></path>
                <path d="M42.9821348,45.7290766 C42.9821348,43.6519277 42.9821348,43.2741617 42.9506742,42.8479064 C42.9192135,42.3923319 42.8416854,42.1713106 42.3866292,42.1081617 C42.2765169,42.0923745 42.0405618,42.0765872 41.9158427,42.0765872 C41.8686517,42.0765872 41.8057303,42.014566 41.8057303,41.9672043 C41.8057303,41.8882681 41.8686517,41.855566 42.0248315,41.855566 C42.6529213,41.855566 43.5473034,41.8882681 43.6259551,41.8882681 C43.7192135,41.8882681 46.6068539,41.9040553 46.9203371,41.8882681 C47.1866292,41.8713532 47.437191,41.8239915 47.5473034,41.8082043 C47.6102247,41.7935447 47.6731461,41.746183 47.7360674,41.746183 C47.7832584,41.746183 47.7989888,41.8082043 47.7989888,41.8713532 C47.7989888,41.9672043 47.7203371,42.1239489 47.6888764,42.5017149 C47.6731461,42.6280128 47.6416854,43.2268 47.6102247,43.3835447 C47.5944944,43.4466936 47.5473034,43.5256298 47.4855056,43.5256298 C47.4068539,43.5256298 47.3753933,43.4613532 47.3753933,43.3519702 C47.3753933,43.2572468 47.3596629,43.0373532 47.2967416,42.8794809 C47.2023596,42.6595872 47.0607865,42.5648638 46.3079775,42.4701404 C46.0731461,42.438566 44.4731461,42.4227787 44.3158427,42.4227787 C44.2529213,42.4227787 44.237191,42.4701404 44.237191,42.5648638 L44.237191,46.201566 C44.237191,46.2962894 44.237191,46.3436511 44.3158427,46.3436511 C44.4877528,46.3436511 46.3079775,46.3436511 46.6214607,46.3120766 C46.9517978,46.2805021 47.1562921,46.2647149 47.2967416,46.1237574 C47.3911236,46.0279064 47.4540449,45.9500979 47.5001124,45.9500979 C47.5473034,45.9500979 47.578764,45.9805447 47.578764,46.0606085 C47.578764,46.138417 47.5001124,46.3583106 47.4697753,46.8003532 C47.437191,47.0676085 47.4068539,47.5716723 47.4068539,47.6663957 C47.4068539,47.7769064 47.3753933,47.9178638 47.2810112,47.9178638 C47.2180899,47.9178638 47.1866292,47.8705021 47.1866292,47.791566 C47.1866292,47.6663957 47.1866292,47.5243106 47.1237079,47.3506511 C47.0776404,47.1623319 46.9517978,47.0055872 46.4180899,46.9424383 C46.0416854,46.8950766 44.5664045,46.8792894 44.331573,46.8792894 C44.2529213,46.8792894 44.237191,46.9266511 44.237191,46.9728851 L44.237191,48.0915234 C44.237191,48.5482255 44.2214607,50.1066511 44.237191,50.3739064 C44.2686517,51.2715234 44.5203371,51.445183 45.884382,51.445183 C46.2450562,51.445183 46.9046067,51.445183 47.2652809,51.3030979 C47.6259551,51.1452255 47.8147191,50.9095447 47.8933708,50.3739064 C47.9237079,50.2171617 47.9551685,50.1698 48.0338202,50.1698 C48.1124719,50.1698 48.1282022,50.2803106 48.1282022,50.3739064 C48.1282022,50.4686298 48.0180899,51.382034 47.9394382,51.6662043 C47.8461798,52.0112681 47.7046067,52.0112681 47.1708989,52.0112681 C46.1360674,52.0112681 45.3360674,51.9808213 44.7708989,51.965034 C44.19,51.9334596 43.8293258,51.9334596 43.6259551,51.9334596 C43.5944944,51.9334596 43.3282022,51.9334596 43.0293258,51.9481191 C42.7630337,51.965034 42.4495506,51.9808213 42.2293258,51.9808213 C42.0877528,51.9808213 42.0102247,51.9481191 42.0102247,51.8703106 C42.0102247,51.8229489 42.0405618,51.7598 42.1192135,51.7598 C42.2450562,51.7598 42.4169663,51.713566 42.542809,51.6966511 C42.8102247,51.6492894 42.8416854,51.382034 42.9034831,50.9884809 C42.9821348,50.4370553 42.9821348,49.381566 42.9821348,48.0915234 L42.9821348,45.7290766 Z" id="Fill-11" fill="#000000"></path>
                <path d="M55.077191,48.0911851 C55.077191,49.3823553 55.077191,50.436717 55.1401124,50.9881426 C55.1873034,51.3816957 55.2502247,51.6331638 55.6738202,51.6963128 C55.8625843,51.7290149 56.1760674,51.7594617 56.3019101,51.7594617 C56.3951685,51.7594617 56.4108989,51.8226106 56.4108989,51.8699723 C56.4108989,51.9331213 56.3479775,51.980483 56.1917978,51.980483 C55.4378652,51.980483 54.5592135,51.9331213 54.4816854,51.9331213 C54.418764,51.9331213 53.4614607,51.980483 53.0535955,51.980483 C52.8962921,51.980483 52.8333708,51.9489085 52.8333708,51.8699723 C52.8333708,51.8226106 52.8648315,51.7752489 52.9434831,51.7752489 C53.0693258,51.7752489 53.2266292,51.7436745 53.3524719,51.7132277 C53.6333708,51.6489511 53.7120225,51.3816957 53.7592135,50.9881426 C53.8221348,50.436717 53.8221348,49.3823553 53.8221348,48.0911851 L53.8221348,42.4709298 L51.83,42.5013766 C50.9670787,42.5182915 50.6378652,42.6118872 50.4333708,42.9265043 C50.277191,43.1633128 50.2614607,43.2569085 50.2142697,43.3516319 C50.182809,43.4621426 50.135618,43.4779298 50.0726966,43.4779298 C50.041236,43.4779298 49.9783146,43.4463553 49.9783146,43.3674191 C49.9783146,43.2264617 50.2446067,42.0300149 50.277191,41.9195043 C50.2929213,41.8405681 50.3704494,41.6669085 50.4176404,41.6669085 C50.5120225,41.6669085 50.6535955,41.7774191 51.03,41.8236532 C51.4221348,41.8721426 51.9558427,41.8879298 52.1120225,41.8879298 L57.3210112,41.8879298 C57.7760674,41.8879298 58.0895506,41.8563553 58.3097753,41.8236532 C58.5131461,41.7932064 58.6389888,41.7616319 58.7019101,41.7616319 C58.7637079,41.7616319 58.7637079,41.8405681 58.7637079,41.9195043 C58.7637079,42.327717 58.7165169,43.2896106 58.7165169,43.4463553 C58.7165169,43.556866 58.6535955,43.6200149 58.5917978,43.6200149 C58.5288764,43.6200149 58.4974157,43.5715255 58.4816854,43.3832064 L58.4659551,43.2411213 C58.418764,42.8317809 58.1210112,42.5329511 56.8030337,42.5013766 L55.077191,42.4709298 L55.077191,48.0911851 Z" id="Fill-13" fill="#000000"></path>
                <path d="M136.642135,51.7131149 C136.453371,51.6183915 136.43764,51.5710298 136.43764,51.2090511 C136.43764,50.5471149 136.501685,50.0126043 136.516292,49.791583 C136.516292,49.6506255 136.548876,49.5716894 136.625281,49.5716894 C136.705056,49.5716894 136.752247,49.6190511 136.752247,49.728434 C136.752247,49.8389447 136.752247,50.0283915 136.799438,50.2167106 C137.018539,51.1932638 138.054494,51.5394553 138.979213,51.5394553 C140.344382,51.5394553 141.051124,50.7681362 141.051124,49.7611362 C141.051124,48.7992426 140.533146,48.3436681 139.309551,47.4302638 L138.681461,46.9577745 C137.190449,45.8402638 136.705056,45.0204553 136.705056,44.0923915 C136.705056,42.5181787 137.944382,41.5732 139.763483,41.5732 C140.314045,41.5732 140.86236,41.6521362 141.192697,41.7299447 C141.458989,41.7930936 141.569101,41.7930936 141.67809,41.7930936 C141.788202,41.7930936 141.818539,41.8100085 141.818539,41.887817 C141.818539,41.950966 141.756742,42.3918809 141.756742,43.3052851 C141.756742,43.5093915 141.741011,43.6041149 141.646629,43.6041149 C141.553371,43.6041149 141.535393,43.540966 141.52191,43.4304553 C141.50618,43.2737106 141.394944,42.9117319 141.317416,42.7696468 C141.223034,42.6117745 140.767978,42.1077106 139.527528,42.1077106 C138.525281,42.1077106 137.69382,42.6117745 137.69382,43.5567532 C137.69382,44.4070085 138.116292,44.8941574 139.480337,45.8244766 L139.874719,46.0928596 C141.553371,47.2419447 142.133146,48.1700085 142.133146,49.3202213 C142.133146,50.1062 141.835393,50.957583 140.845506,51.6026043 C140.266854,51.9803702 139.402809,52.0750936 138.65,52.0750936 C138.007303,52.0750936 137.207303,51.9803702 136.642135,51.7131149" id="Fill-15" fill="#000000"></path>
                <path d="M148.877753,42.0454638 C149.050787,41.6045489 149.113708,41.5256128 149.206966,41.5256128 C149.348539,41.5256128 149.39573,41.7150596 149.537303,42.0138894 C149.788989,42.5811021 152.000225,48.1077617 152.846292,50.1386766 C153.348539,51.3351234 153.724944,51.508783 154.02382,51.6035064 C154.228315,51.6655277 154.431685,51.6813149 154.573258,51.6813149 C154.65191,51.6813149 154.746292,51.7128894 154.746292,51.7918255 C154.746292,51.8707617 154.587865,51.9023362 154.431685,51.9023362 C154.228315,51.9023362 153.20809,51.9023362 152.250787,51.8707617 C151.985618,51.8549745 151.76427,51.8549745 151.76427,51.7760383 C151.76427,51.7128894 151.796854,51.7128894 151.858652,51.6813149 C151.938427,51.6508681 152.078876,51.5403574 151.985618,51.3193362 L150.745169,48.2498468 C150.712584,48.1866979 150.697978,48.169783 150.619326,48.169783 L147.433933,48.169783 C147.372135,48.169783 147.32382,48.2024851 147.293483,48.2802936 L146.510337,50.4217191 C146.384494,50.7532511 146.304719,51.0836553 146.304719,51.3193362 C146.304719,51.5877191 146.540674,51.6813149 146.775506,51.6813149 L146.901348,51.6813149 C147.011461,51.6813149 147.042921,51.7286766 147.042921,51.7918255 C147.042921,51.8707617 146.96427,51.9023362 146.839551,51.9023362 C146.510337,51.9023362 145.757528,51.8549745 145.599101,51.8549745 C145.458652,51.8549745 144.76764,51.9023362 144.203596,51.9023362 C144.031685,51.9023362 143.937303,51.8707617 143.937303,51.7918255 C143.937303,51.7286766 143.999101,51.6813149 144.060899,51.6813149 C144.155281,51.6813149 144.359775,51.6655277 144.469888,51.6508681 C145.096854,51.5708043 145.363146,51.0994426 145.630562,50.4217191 L148.877753,42.0454638 Z M150.415955,47.6194851 C150.478876,47.6194851 150.478876,47.5879106 150.462022,47.5247617 L149.097978,43.8564851 C149.019326,43.6523787 148.941798,43.6523787 148.862022,43.8564851 L147.575506,47.5247617 C147.559775,47.5879106 147.575506,47.6194851 147.622697,47.6194851 L150.415955,47.6194851 Z" id="Fill-17" fill="#000000"></path>
                <path d="M157.317865,45.650817 C157.317865,43.5736681 157.317865,43.1959021 157.286404,42.7696468 C157.254944,42.3140723 157.176292,42.0930511 156.721236,42.0299021 C156.612247,42.0141149 156.376292,41.9983277 156.251573,41.9983277 C156.203258,41.9983277 156.141461,41.9363064 156.141461,41.8889447 C156.141461,41.8100085 156.203258,41.7773064 156.360562,41.7773064 C156.988652,41.7773064 157.850449,41.8100085 157.929101,41.8100085 C158.196517,41.8100085 161.192022,41.8257957 161.507753,41.8100085 C161.772921,41.7930936 162.008876,41.7930936 162.134719,41.7457319 C162.212247,41.7299447 162.275169,41.6679234 162.321236,41.6679234 C162.385281,41.6679234 162.416742,41.7299447 162.416742,41.7930936 C162.416742,41.8889447 162.35382,42.0456894 162.306629,42.4234553 C162.290899,42.5497532 162.275169,43.1485404 162.243708,43.3052851 C162.227978,43.368434 162.180787,43.4473702 162.117865,43.4473702 C162.054944,43.4473702 162.008876,43.3830936 162.008876,43.2894979 C162.008876,43.1789872 161.961685,42.9590936 161.883034,42.785434 C161.804382,42.6117745 161.475169,42.3918809 160.941461,42.3918809 L158.68191,42.3603064 C158.604382,42.3603064 158.572921,42.3918809 158.572921,42.5012638 L158.572921,46.1548809 C158.572921,46.233817 158.572921,46.2800511 158.66618,46.2800511 L160.549326,46.2653915 C160.785281,46.2653915 160.988652,46.2653915 161.176292,46.2496043 C161.507753,46.2180298 161.69427,46.1706681 161.820112,46.0127957 C161.883034,45.9349872 161.944831,45.8718383 161.992022,45.8718383 C162.054944,45.8718383 162.070674,45.9192 162.070674,45.9823489 C162.070674,46.0601574 161.977416,46.2800511 161.944831,46.7220936 C161.914494,46.9893489 161.898764,47.5249872 161.898764,47.6197106 C161.898764,47.7460085 161.867303,47.886966 161.772921,47.886966 C161.69427,47.886966 161.678539,47.823817 161.678539,47.7606681 C161.662809,47.6197106 161.648202,47.4302638 161.585281,47.2723915 C161.52236,47.0840723 161.302135,46.9104128 160.879663,46.8483915 C160.533596,46.8010298 158.902135,46.816817 158.66618,46.816817 C158.588652,46.816817 158.572921,46.8483915 158.572921,46.9419872 L158.572921,48.0132638 C158.572921,49.3360085 158.572921,50.3903702 158.635843,50.9102213 C158.68191,51.3037745 158.761685,51.5552426 159.13809,51.6183915 C159.341461,51.649966 159.639213,51.6815404 159.765056,51.6815404 C159.843708,51.6815404 159.875169,51.7446894 159.875169,51.7920511 C159.875169,51.8552 159.811124,51.9025617 159.654944,51.9025617 C158.886404,51.9025617 157.993146,51.8552 157.929101,51.8552 C157.850449,51.8552 156.988652,51.9025617 156.565056,51.9025617 C156.42236,51.9025617 156.344831,51.8698596 156.344831,51.7920511 C156.344831,51.7446894 156.376292,51.6815404 156.454944,51.6815404 C156.580787,51.6815404 156.752697,51.6353064 156.878539,51.6183915 C157.144831,51.5710298 157.176292,51.3037745 157.239213,50.9102213 C157.317865,50.3587957 157.317865,49.3033064 157.317865,48.0132638 L157.317865,45.650817 Z" id="Fill-19" fill="#000000"></path>
                <path d="M168.141236,42.0454638 C168.31427,41.6045489 168.377191,41.5256128 168.471573,41.5256128 C168.612022,41.5256128 168.659213,41.7150596 168.800787,42.0138894 C169.052472,42.5811021 171.263708,48.1077617 172.110899,50.1386766 C172.613146,51.3351234 172.989551,51.508783 173.287303,51.6035064 C173.491798,51.6655277 173.695169,51.6813149 173.836742,51.6813149 C173.915393,51.6813149 174.010899,51.7128894 174.010899,51.7918255 C174.010899,51.8707617 173.851348,51.9023362 173.695169,51.9023362 C173.491798,51.9023362 172.471573,51.9023362 171.51427,51.8707617 C171.249101,51.8549745 171.027753,51.8549745 171.027753,51.7760383 C171.027753,51.7128894 171.061461,51.7128894 171.122135,51.6813149 C171.20191,51.6508681 171.34236,51.5403574 171.249101,51.3193362 L170.008652,48.2498468 C169.977191,48.1866979 169.961461,48.169783 169.882809,48.169783 L166.697416,48.169783 C166.635618,48.169783 166.588427,48.2024851 166.556966,48.2802936 L165.772697,50.4217191 C165.646854,50.7532511 165.568202,51.0836553 165.568202,51.3193362 C165.568202,51.5877191 165.804157,51.6813149 166.038989,51.6813149 L166.164831,51.6813149 C166.27382,51.6813149 166.306404,51.7286766 166.306404,51.7918255 C166.306404,51.8707617 166.227753,51.9023362 166.103034,51.9023362 C165.772697,51.9023362 165.018764,51.8549745 164.862584,51.8549745 C164.722135,51.8549745 164.031124,51.9023362 163.467079,51.9023362 C163.295169,51.9023362 163.200787,51.8707617 163.200787,51.7918255 C163.200787,51.7286766 163.261461,51.6813149 163.325506,51.6813149 C163.418764,51.6813149 163.623258,51.6655277 163.733371,51.6508681 C164.360337,51.5708043 164.626629,51.0994426 164.894045,50.4217191 L168.141236,42.0454638 Z M169.679438,47.6194851 C169.74236,47.6194851 169.74236,47.5879106 169.726629,47.5247617 L168.361461,43.8564851 C168.281685,43.6523787 168.205281,43.6523787 168.125506,43.8564851 L166.840112,47.5247617 C166.823258,47.5879106 166.840112,47.6194851 166.88618,47.6194851 L169.679438,47.6194851 Z" id="Fill-21" fill="#000000"></path>
                <path d="M176.582472,45.650817 C176.582472,43.5736681 176.582472,43.1959021 176.551011,42.7696468 C176.518427,42.3140723 176.440899,42.0930511 175.985843,42.0299021 C175.876854,42.0141149 175.640899,41.9983277 175.51618,41.9983277 C175.467865,41.9983277 175.406067,41.9363064 175.406067,41.8889447 C175.406067,41.8100085 175.467865,41.7773064 175.625169,41.7773064 C176.253258,41.7773064 177.177978,41.8100085 177.257753,41.8100085 C177.398202,41.8100085 178.558876,41.7773064 178.982472,41.7773064 C179.861124,41.7773064 180.833034,41.8562426 181.555506,42.3603064 C181.900449,42.6117745 182.512809,43.2579234 182.512809,44.1871149 C182.512809,45.1794553 182.104944,46.1390936 180.818427,47.2419447 C181.946517,48.6582851 182.904944,49.8716468 183.704944,50.7061149 C184.442022,51.4616468 184.895955,51.5879447 185.242022,51.6353064 C185.508315,51.6815404 185.648764,51.6815404 185.728539,51.6815404 C185.807191,51.6815404 185.853258,51.7446894 185.853258,51.7920511 C185.853258,51.8698596 185.77573,51.9025617 185.524045,51.9025617 L184.661124,51.9025617 C183.876854,51.9025617 183.533034,51.8224979 183.186966,51.6353064 C182.590337,51.3195617 182.086966,50.6734128 181.304944,49.6664128 C180.724045,48.9424553 180.111685,48.0764128 179.813933,47.7133064 C179.749888,47.6501574 179.720674,47.6354979 179.625169,47.6354979 L177.868989,47.6039234 C177.806067,47.6039234 177.774607,47.6354979 177.774607,47.7133064 L177.774607,48.0290511 C177.774607,49.3202213 177.774607,50.3587957 177.837528,50.9102213 C177.884719,51.3037745 177.963371,51.5552426 178.385843,51.6183915 C178.573483,51.649966 178.87236,51.6815404 178.997079,51.6815404 C179.091461,51.6815404 179.108315,51.7446894 179.108315,51.7920511 C179.108315,51.8552 179.04427,51.9025617 178.889213,51.9025617 C178.136404,51.9025617 177.257753,51.8552 177.193708,51.8552 C177.177978,51.8552 176.253258,51.9025617 175.829663,51.9025617 C175.68809,51.9025617 175.609438,51.8698596 175.609438,51.7920511 C175.609438,51.7446894 175.640899,51.6815404 175.718427,51.6815404 C175.845393,51.6815404 176.017303,51.649966 176.142022,51.6183915 C176.409438,51.5552426 176.440899,51.3037745 176.50382,50.9102213 C176.582472,50.3587957 176.582472,49.3033064 176.582472,48.0132638 L176.582472,45.650817 Z M177.774607,46.7841149 C177.774607,46.8641787 177.806067,46.9104128 177.868989,46.9577745 C178.07236,47.0682851 178.779101,47.1618809 179.391461,47.1618809 C179.720674,47.1618809 180.097079,47.1472213 180.426292,46.9273277 C180.897079,46.611583 181.256629,45.9022851 181.256629,44.8794979 C181.256629,43.2105617 180.34764,42.2497957 178.87236,42.2497957 C178.465618,42.2497957 178.026292,42.2971574 177.884719,42.3287319 C177.820674,42.3603064 177.774607,42.4076681 177.774607,42.4866043 L177.774607,46.7841149 Z" id="Fill-23" fill="#000000"></path>
                <path d="M189.131798,48.0129255 C189.131798,49.3040957 189.131798,50.3584574 189.195843,50.909883 C189.243034,51.3034362 189.289101,51.5549043 189.696966,51.6180532 C189.901461,51.6507553 190.19809,51.6812021 190.325056,51.6812021 C190.402584,51.6812021 190.432921,51.7443511 190.432921,51.7917128 C190.432921,51.8548617 190.372247,51.9022234 190.21382,51.9022234 C189.445281,51.9022234 188.550899,51.8548617 188.490225,51.8548617 C188.409326,51.8548617 187.546404,51.9022234 187.123933,51.9022234 C186.98236,51.9022234 186.904831,51.8706489 186.904831,51.7917128 C186.904831,51.7443511 186.935169,51.6812021 187.01382,51.6812021 C187.139663,51.6812021 187.311573,51.6507553 187.437416,51.6180532 C187.703708,51.5549043 187.750899,51.3034362 187.79809,50.909883 C187.861011,50.3584574 187.876742,49.3040957 187.876742,48.0129255 L187.876742,45.6504787 C187.876742,43.5733298 187.876742,43.1955638 187.845281,42.7704362 C187.81382,42.313734 187.703708,42.1085 187.405955,42.0453511 C187.248652,42.0137766 187.076742,41.9979894 186.98236,41.9979894 C186.919438,41.9979894 186.872247,41.9359681 186.872247,41.8886064 C186.872247,41.8096702 186.935169,41.7780957 187.092472,41.7780957 C187.546404,41.7780957 188.409326,41.8096702 188.490225,41.8096702 C188.550899,41.8096702 189.445281,41.7780957 189.868876,41.7780957 C190.02618,41.7780957 190.089101,41.8096702 190.089101,41.8886064 C190.089101,41.9359681 190.02618,41.9979894 189.978989,41.9979894 C189.884607,41.9979894 189.790225,41.9979894 189.634045,42.0295638 C189.25764,42.1085 189.177865,42.2968191 189.148652,42.7704362 C189.131798,43.1955638 189.131798,43.5733298 189.131798,45.6504787 L189.131798,48.0129255 Z" id="Fill-25" fill="#000000"></path>
                <path d="M193.570225,51.7131149 C193.381461,51.6183915 193.366854,51.5710298 193.366854,51.2090511 C193.366854,50.5471149 193.429775,50.0126043 193.444382,49.791583 C193.444382,49.6506255 193.476966,49.5716894 193.554494,49.5716894 C193.633146,49.5716894 193.680337,49.6190511 193.680337,49.728434 C193.680337,49.8389447 193.680337,50.0283915 193.727528,50.2167106 C193.946629,51.1932638 194.982584,51.5394553 195.907303,51.5394553 C197.272472,51.5394553 197.979213,50.7681362 197.979213,49.7611362 C197.979213,48.7992426 197.461236,48.3436681 196.23764,47.4302638 L195.610674,46.9577745 C194.119663,45.8402638 193.633146,45.0204553 193.633146,44.0923915 C193.633146,42.5181787 194.872472,41.5732 196.692697,41.5732 C197.242135,41.5732 197.790449,41.6521362 198.120787,41.7299447 C198.387079,41.7930936 198.497191,41.7930936 198.607303,41.7930936 C198.716292,41.7930936 198.747753,41.8100085 198.747753,41.887817 C198.747753,41.950966 198.684831,42.3918809 198.684831,43.3052851 C198.684831,43.5093915 198.669101,43.6041149 198.574719,43.6041149 C198.481461,43.6041149 198.464607,43.540966 198.45,43.4304553 C198.43427,43.2737106 198.324157,42.9117319 198.245506,42.7696468 C198.151124,42.6117745 197.696067,42.1077106 196.456742,42.1077106 C195.453371,42.1077106 194.62191,42.6117745 194.62191,43.5567532 C194.62191,44.4070085 195.045506,44.8941574 196.409551,45.8244766 L196.802809,46.0928596 C198.481461,47.2419447 199.061236,48.1700085 199.061236,49.3202213 C199.061236,50.1062 198.763483,50.957583 197.774719,51.6026043 C197.194944,51.9803702 196.330899,52.0750936 195.57809,52.0750936 C194.935393,52.0750936 194.135393,51.9803702 193.570225,51.7131149" id="Fill-27" fill="#000000"></path>
                <path d="M64.8505618,37.5474553 C65.0831461,36.9035617 65.1617978,36.7874128 65.2775281,36.7874128 C65.394382,36.7874128 65.4719101,36.8843915 65.7044944,37.488817 C65.9966292,38.2296894 69.047191,46.283434 70.2325843,49.2469234 C70.9314607,50.9823915 71.4955056,51.2947532 71.9033708,51.4120298 C72.194382,51.5101362 72.4865169,51.5293064 72.6797753,51.5293064 C72.7966292,51.5293064 72.8752809,51.5484766 72.8752809,51.6454553 C72.8752809,51.7627319 72.7,51.8010723 72.4865169,51.8010723 C72.194382,51.8010723 70.7764045,51.8010723 69.4359551,51.7627319 C69.0662921,51.7435617 68.852809,51.7435617 68.852809,51.6262851 C68.852809,51.5484766 68.911236,51.5101362 68.988764,51.4898383 C69.105618,51.4503702 69.2224719,51.275583 69.105618,50.9632213 L67.2988764,46.1661574 C67.2595506,46.0883489 67.2202247,46.0488809 67.1235955,46.0488809 L62.9460674,46.0488809 C62.8494382,46.0488809 62.7910112,46.1075191 62.7516854,46.2056255 L61.5865169,49.6573915 C61.411236,50.1445404 61.3146067,50.6125191 61.3146067,50.9632213 C61.3146067,51.3522638 61.7224719,51.5293064 62.052809,51.5293064 L62.247191,51.5293064 C62.3831461,51.5293064 62.4404494,51.5676468 62.4404494,51.6454553 C62.4404494,51.7627319 62.3247191,51.8010723 62.1494382,51.8010723 C61.6831461,51.8010723 60.8483146,51.7435617 60.6337079,51.7435617 C60.4202247,51.7435617 59.3516854,51.8010723 58.4382022,51.8010723 C58.1865169,51.8010723 58.0696629,51.7627319 58.0696629,51.6454553 C58.0696629,51.5676468 58.147191,51.5293064 58.2438202,51.5293064 C58.3797753,51.5293064 58.652809,51.5101362 58.8078652,51.4898383 C59.7011236,51.3725617 60.0898876,50.6316894 60.4404494,49.6573915 L64.8505618,37.5474553 Z M66.8707865,45.3474766 C66.9685393,45.3474766 66.9685393,45.2888383 66.9483146,45.2110298 L65.1033708,39.9459872 C65.005618,39.6539234 64.9089888,39.6539234 64.811236,39.9459872 L63.1011236,45.2110298 C63.0629213,45.3091362 63.1011236,45.3474766 63.1606742,45.3474766 L66.8707865,45.3474766 Z" id="Fill-29" fill="#A9431E"></path>
                <path d="M75.3755056,42.7149553 C75.3755056,39.6736574 75.3755056,39.1267426 75.3373034,38.5031468 C75.2979775,37.840083 75.1429213,37.5277213 74.5013483,37.3912745 C74.3462921,37.352934 74.0159551,37.3337638 73.8406742,37.3337638 C73.7631461,37.3337638 73.685618,37.2931681 73.685618,37.2164872 C73.685618,37.0992106 73.7822472,37.0597426 73.9968539,37.0597426 C74.4429213,37.0597426 74.9676404,37.0597426 75.3957303,37.0800404 L76.1923596,37.0992106 C76.58,37.0992106 80.5249438,37.1183809 80.9710112,37.0992106 C81.3406742,37.0800404 81.6519101,37.0800404 81.8260674,37.0214021 C81.9429213,36.981934 82.0204494,36.9041255 82.0979775,36.9041255 C82.1766292,36.9041255 82.2148315,36.981934 82.2148315,37.0800404 C82.2148315,37.2164872 82.1182022,37.4499128 82.0597753,37.9957 C82.0395506,38.1907851 82.0013483,39.048934 81.9620225,39.2834872 C81.9429213,39.380466 81.9035955,39.4966149 81.8069663,39.4966149 C81.7092135,39.4966149 81.6710112,39.3996362 81.6710112,39.2631894 C81.6710112,39.1075723 81.6125843,38.7760404 81.4957303,38.522317 C81.38,38.2697213 80.932809,37.9178915 80.174382,37.8987213 L77.1822472,37.840083 C77.0665169,37.840083 77.0080899,37.8987213 77.0080899,38.0543383 L77.0080899,43.4366574 C77.0080899,43.5528064 77.027191,43.6125723 77.1440449,43.6125723 L79.6305618,43.5922745 C79.9608989,43.5922745 80.232809,43.5922745 80.5047191,43.5731043 C80.9710112,43.5336362 81.2238202,43.4749979 81.3991011,43.2212745 C81.4766292,43.1242957 81.5350562,43.027317 81.6125843,43.027317 C81.6901124,43.027317 81.7092135,43.0859553 81.7092135,43.182934 C81.7092135,43.3002106 81.6125843,43.6317426 81.5541573,44.2745085 C81.5159551,44.6658064 81.4766292,45.4450191 81.4766292,45.581466 C81.4766292,45.7573809 81.4766292,45.952466 81.3406742,45.952466 C81.2429213,45.952466 81.2047191,45.8735298 81.2047191,45.7765511 C81.185618,45.581466 81.1653933,45.3085723 81.0878652,45.0740191 C80.991236,44.8011255 80.68,44.4504234 80.0777528,44.3726149 C79.5923596,44.3139766 77.474382,44.3139766 77.1440449,44.3139766 C77.0462921,44.3139766 77.0080899,44.3534447 77.0080899,44.4887638 L77.0080899,46.1464234 C77.0080899,48.0183383 77.0080899,49.5598489 77.1047191,50.3785298 C77.1631461,50.9434872 77.28,51.3731255 77.8620225,51.450934 C78.1350562,51.4892745 78.5620225,51.5298702 78.7373034,51.5298702 C78.8530337,51.5298702 78.8923596,51.5873809 78.8923596,51.6460191 C78.8923596,51.7429979 78.7946067,51.8016362 78.5822472,51.8016362 C77.5125843,51.8016362 76.2889888,51.7429979 76.1923596,51.7429979 C76.0946067,51.7429979 74.8710112,51.8016362 74.2878652,51.8016362 C74.074382,51.8016362 73.9766292,51.7632957 73.9766292,51.6460191 C73.9766292,51.5873809 74.0159551,51.5298702 74.1316854,51.5298702 C74.3069663,51.5298702 74.5406742,51.4892745 74.7148315,51.450934 C75.1035955,51.3731255 75.2002247,50.9434872 75.2788764,50.3785298 C75.3755056,49.5598489 75.3755056,48.0183383 75.3755056,46.1464234 L75.3755056,42.7149553 Z" id="Fill-31" fill="#A9431E"></path>
                <path d="M86.6021348,42.7149553 C86.6021348,39.6736574 86.6021348,39.1267426 86.5639326,38.5031468 C86.5246067,37.840083 86.3695506,37.5277213 85.7279775,37.3912745 C85.5729213,37.352934 85.2425843,37.3337638 85.0673034,37.3337638 C84.9897753,37.3337638 84.9122472,37.2931681 84.9122472,37.2164872 C84.9122472,37.0992106 85.0088764,37.0597426 85.2223596,37.0597426 C86.0976404,37.0597426 87.321236,37.1183809 87.4178652,37.1183809 C87.6324719,37.1183809 89.1088764,37.0597426 89.7111236,37.0597426 C90.9347191,37.0597426 92.2369663,37.1770191 93.2661798,37.9178915 C93.7526966,38.2697213 94.6077528,39.2248489 94.6077528,40.5701468 C94.6077528,42.0135511 94.0055056,43.4558277 92.2560674,45.0740191 C93.8493258,47.1218489 95.1706742,48.857317 96.2976404,50.0661681 C97.3470787,51.1780404 98.1830337,51.3922957 98.668427,51.4701043 C99.0369663,51.5298702 99.3088764,51.5298702 99.4257303,51.5298702 C99.5223596,51.5298702 99.6010112,51.5873809 99.6010112,51.6460191 C99.6010112,51.7632957 99.4830337,51.8016362 99.1347191,51.8016362 L97.7549438,51.8016362 C96.6673034,51.8016362 96.1807865,51.7046574 95.6762921,51.4317638 C94.8403371,50.9829553 94.1605618,50.0278277 93.0526966,48.5652532 C92.2369663,47.4928489 91.3234831,46.1858915 90.9347191,45.6784447 C90.857191,45.6017638 90.798764,45.5611681 90.6830337,45.5611681 L88.2920225,45.5228277 C88.1953933,45.5228277 88.1560674,45.581466 88.1560674,45.6784447 L88.1560674,46.1464234 C88.1560674,48.0183383 88.1560674,49.5598489 88.2538202,50.3785298 C88.3122472,50.9434872 88.4291011,51.3731255 89.0122472,51.450934 C89.2841573,51.4892745 89.7111236,51.5298702 89.8864045,51.5298702 C90.0021348,51.5298702 90.0414607,51.5873809 90.0414607,51.6460191 C90.0414607,51.7429979 89.9448315,51.8016362 89.7302247,51.8016362 C88.6616854,51.8016362 87.4380899,51.7429979 87.3403371,51.7429979 C87.321236,51.7429979 86.0976404,51.8016362 85.5144944,51.8016362 C85.3010112,51.8016362 85.2032584,51.7632957 85.2032584,51.6460191 C85.2032584,51.5873809 85.2425843,51.5298702 85.3583146,51.5298702 C85.5335955,51.5298702 85.7673034,51.4892745 85.9414607,51.450934 C86.3302247,51.3731255 86.4268539,50.9434872 86.5055056,50.3785298 C86.6021348,49.5598489 86.6021348,48.0183383 86.6021348,46.1464234 L86.6021348,42.7149553 Z M88.1560674,44.4109553 C88.1560674,44.5090617 88.1953933,44.5868702 88.2920225,44.6455085 C88.5841573,44.8214234 89.4785393,44.9578702 90.3324719,44.9578702 C90.798764,44.9578702 91.3437079,44.8992319 91.7897753,44.5868702 C92.4695506,44.1188915 92.9751685,43.0656574 92.9751685,41.5839128 C92.9751685,39.1459128 91.6931461,37.684466 89.6133708,37.684466 C89.0313483,37.684466 88.5066292,37.7419766 88.3122472,37.8017426 C88.2144944,37.840083 88.1560674,37.9178915 88.1560674,38.0351681 L88.1560674,44.4109553 Z" id="Fill-33" fill="#A9431E"></path>
                <path d="M102.607303,46.1469872 C102.607303,48.0189021 102.607303,49.5592851 102.703933,50.377966 C102.76236,50.9440511 102.87809,51.3736894 103.461236,51.4503702 C103.73427,51.4898383 104.161236,51.5293064 104.336517,51.5293064 C104.453371,51.5293064 104.491573,51.5879447 104.491573,51.6454553 C104.491573,51.7435617 104.39382,51.8022 104.180337,51.8022 C103.110674,51.8022 101.887079,51.7435617 101.789326,51.7435617 C101.69382,51.7435617 100.470225,51.8022 99.8870787,51.8022 C99.6735955,51.8022 99.5758427,51.7627319 99.5758427,51.6454553 C99.5758427,51.5879447 99.6140449,51.5293064 99.7297753,51.5293064 C99.9061798,51.5293064 100.139888,51.4898383 100.314045,51.4503702 C100.703933,51.3736894 100.800562,50.9440511 100.87809,50.377966 C100.974719,49.5592851 100.974719,48.0189021 100.974719,46.1469872 L100.974719,42.7155191 C100.974719,39.6730936 100.974719,39.1273064 100.936517,38.502583 C100.897191,37.8406468 100.703933,37.5091149 100.275843,37.4110085 C100.060112,37.3523702 99.8095506,37.3332 99.6735955,37.3332 C99.5938202,37.3332 99.5174157,37.2937319 99.5174157,37.2159234 C99.5174157,37.0986468 99.6140449,37.0603064 99.8275281,37.0603064 C100.470225,37.0603064 101.69382,37.1189447 101.789326,37.1189447 C101.887079,37.1189447 103.110674,37.0603064 103.694944,37.0603064 C103.907303,37.0603064 104.00618,37.0986468 104.00618,37.2159234 C104.00618,37.2937319 103.928652,37.3332 103.85,37.3332 C103.714045,37.3332 103.598315,37.3523702 103.364607,37.3918383 C102.839888,37.4899447 102.683708,37.8203489 102.645506,38.502583 C102.607303,39.1273064 102.607303,39.6730936 102.607303,42.7155191 L102.607303,46.1469872 Z" id="Fill-35" fill="#A9431E"></path>
                <path d="M109.093258,49.9693021 C107.207865,48.2721745 106.742697,46.0484298 106.742697,44.1968128 C106.742697,42.8898553 107.189888,40.6097277 108.917978,38.8731319 C110.08427,37.7037489 111.852809,36.7869617 114.84382,36.7869617 C115.621348,36.7869617 116.708989,36.8456 117.661798,37.0215149 C118.4,37.1579617 119.021348,37.2741106 119.64382,37.3124511 C119.857303,37.3338766 119.896629,37.4105574 119.896629,37.527834 C119.896629,37.6845787 119.838202,37.9180043 119.797753,38.6205362 C119.760674,39.2633021 119.760674,40.3357064 119.741573,40.6288979 C119.721348,40.9209617 119.682022,41.0371106 119.565169,41.0371106 C119.430337,41.0371106 119.410112,40.9017915 119.410112,40.6288979 C119.410112,39.8677277 119.097753,39.068217 118.594382,38.6397064 C117.914607,38.0544511 116.417978,37.527834 114.707865,37.527834 C112.123596,37.527834 110.920225,38.2890043 110.240449,38.9520681 C108.821348,40.3165362 108.491011,42.0520043 108.491011,44.0411957 C108.491011,47.7658553 111.347191,51.1781532 115.504494,51.1781532 C116.962921,51.1781532 118.107865,51.0022383 118.885393,50.2027277 C119.294382,49.7730894 119.546067,48.9160681 119.603371,48.565366 C119.64382,48.349983 119.682022,48.2721745 119.797753,48.2721745 C119.896629,48.2721745 119.933708,48.4097489 119.933708,48.565366 C119.933708,48.7018128 119.7,50.3978128 119.507865,51.0608766 C119.391011,51.4318766 119.351685,51.470217 119.001124,51.625834 C118.225843,51.9381957 116.747191,52.0746426 115.504494,52.0746426 C112.589888,52.0746426 110.62809,51.3529404 109.093258,49.9693021" id="Fill-37" fill="#A9431E"></path>
                <path d="M127.117865,37.5474553 C127.351573,36.9035617 127.427978,36.7874128 127.545955,36.7874128 C127.661685,36.7874128 127.739213,36.8843915 127.972921,37.488817 C128.265056,38.2296894 131.313371,46.283434 132.499888,49.2469234 C133.198764,50.9823915 133.762809,51.2947532 134.170674,51.4120298 C134.462809,51.5101362 134.75382,51.5293064 134.948202,51.5293064 C135.062809,51.5293064 135.142584,51.5484766 135.142584,51.6454553 C135.142584,51.7627319 134.967303,51.8010723 134.75382,51.8010723 C134.462809,51.8010723 133.042584,51.8010723 131.703258,51.7627319 C131.333596,51.7435617 131.120112,51.7435617 131.120112,51.6262851 C131.120112,51.5484766 131.177416,51.5101362 131.257191,51.4898383 C131.374045,51.4503702 131.489775,51.275583 131.374045,50.9632213 L129.56618,46.1661574 C129.527978,46.0883489 129.487528,46.0488809 129.390899,46.0488809 L125.214494,46.0488809 C125.116742,46.0488809 125.058315,46.1075191 125.020112,46.2056255 L123.85382,49.6573915 C123.677416,50.1445404 123.58191,50.6125191 123.58191,50.9632213 C123.58191,51.3522638 123.989775,51.5293064 124.320112,51.5293064 L124.515618,51.5293064 C124.650449,51.5293064 124.707753,51.5676468 124.707753,51.6454553 C124.707753,51.7627319 124.592022,51.8010723 124.417865,51.8010723 C123.951573,51.8010723 123.114494,51.7435617 122.902135,51.7435617 C122.688652,51.7435617 121.618989,51.8010723 120.706629,51.8010723 C120.452697,51.8010723 120.33809,51.7627319 120.33809,51.6454553 C120.33809,51.5676468 120.414494,51.5293064 120.512247,51.5293064 C120.648202,51.5293064 120.918989,51.5101362 121.075169,51.4898383 C121.969551,51.3725617 122.358315,50.6316894 122.707753,49.6573915 L127.117865,37.5474553 Z M129.13809,45.3474766 C129.235843,45.3474766 129.235843,45.2888383 129.216742,45.2110298 L127.370674,39.9459872 C127.272921,39.6539234 127.176292,39.6539234 127.079663,39.9459872 L125.368427,45.2110298 C125.331348,45.3091362 125.368427,45.3474766 125.426854,45.3474766 L129.13809,45.3474766 Z" id="Fill-39" fill="#A9431E"></path>
            </g>
        </g>
    </g>
</svg>