<?xml version="1.0" encoding="UTF-8"?>
<svg width="60px" height="45px" viewBox="0 0 60 45" version="1.1" xmlns="http://www.w3.org/2000/svg" xmlns:xlink="http://www.w3.org/1999/xlink">
    <!-- Generator: Sketch 48.1 (47250) - http://www.bohemiancoding.com/sketch -->
    <title>assets/logo-icon-planetafrica</title>
    <desc>Created with Sketch.</desc>
    <defs></defs>
    <g id="Symbols" stroke="none" stroke-width="1" fill="none" fill-rule="evenodd">
        <g id="assets/logo-icon-planetafrica" fill="#A9431E">
            <path d="M58.7480595,32.0703594 C48.9525576,26.4945909 39.706055,24.456154 31.8170097,24.1605657 L31.7809111,24.1373676 C31.7809111,24.1373676 31.4688087,23.7647019 31.5312292,22.8315408 C31.5936497,21.899128 32.4998746,21.0901888 32.4998746,21.0901888 C32.4998746,21.0901888 34.1874835,19.8157916 34.6875994,19.8464729 C35.1877152,19.8779026 35.2696891,20.4443845 35.2696891,20.4443845 C37.2385662,21.9679739 39.5932469,21.961239 39.999356,21.961239 C40.4054651,21.961239 41.0928424,21.1837294 40.6867333,21.0280779 C40.1617997,20.8267785 40.8115742,19.4109479 40.8115742,19.4109479 C42.7503691,18.105121 42.1735438,16.3570341 42.1735438,16.3570341 C42.1735438,16.3570341 41.436531,18.2922022 39.5932469,18.9761711 C37.738682,19.6638817 37.1565923,16.5964981 37.1565923,16.5964981 C38.4997606,16.3009098 38.2184924,14.5296248 38.2184924,14.5296248 C38.2184924,14.5296248 37.9327119,14.8895691 37.2137484,15.0766503 C36.496289,15.2629832 35.812672,15.7733408 35.812672,15.7733408 C35.812672,15.7733408 33.4790488,13.1863817 32.3126132,13.0367168 C30.3745703,12.7882729 28.6561272,13.8763373 26.7812568,14.0319888 C25.0146823,14.1786605 21.6560096,13.4101309 20.4376823,13.4722418 C19.2178509,13.5343528 18.0626961,15.8975627 18.0626961,15.8975627 C18.0626961,16.2163491 17.8573854,16.6024847 17.8265512,16.9384826 C17.7927087,17.3141416 17.8085019,17.692794 17.8551292,18.0669564 C17.9100292,18.5009848 17.9957633,18.9312716 18.1115796,19.3525785 C18.1845288,19.6204788 18.1521905,19.9025973 18.3717902,20.1106316 C18.3815669,20.1188632 18.3905916,20.1270948 18.3996162,20.134578 C18.8170061,20.4877873 19.3833027,20.0515139 19.819494,20.3635654 C20.3542043,20.7459594 20.029317,21.5399321 20.2895277,22.0517863 C20.4542275,22.3750626 20.7738504,22.5793553 20.9062119,22.9250814 C21.1047541,23.4429222 20.9295255,24.4479225 20.8475516,24.8422897 C19.918013,24.9941996 19.0253251,25.163321 18.1755042,25.3459123 C7.85356454,27.5646955 1.27910943,32.048658 1.21518485,32.0935575 C0.988064579,32.2499574 0.931660537,32.5597639 1.08959185,32.785758 C1.24677112,33.0110038 1.55812143,33.0686248 1.7852417,32.9107282 C1.84841423,32.8673254 8.25816953,28.4956116 18.3868313,26.3187346 C27.7393735,24.308734 42.246493,23.8245679 58.2517039,32.9339263 C58.3291655,32.9788258 58.4156517,32.9997789 58.4998817,32.9997789 C58.672102,32.9997789 58.8420662,32.9099799 58.9338168,32.7490901 C59.0714427,32.5111228 58.9872126,32.2065545 58.7480595,32.0703594 M24.1934394,24.400778 C24.1167299,24.3521369 24.0392684,24.3064891 24.0001616,24.2930192 C23.9061548,24.2623379 23.3752048,23.4533987 23.1563571,22.9871923 C22.9375094,22.520986 23.1871913,21.339381 23.1871913,21.339381 C23.8121481,21.0595075 24.5002774,21.3079514 24.5002774,21.3079514 C27.7814885,22.0854609 29.0314021,20.9352856 29.3750907,20.7482044 C29.7187793,20.5618715 29.9992954,21.0280779 29.9992954,21.0280779 C29.9992954,21.0280779 30.2181431,22.4274454 30.2805636,22.9871923 C30.3166622,23.313462 30.215887,23.7849066 30.1241364,24.1238978 C28.0379389,24.1096796 26.0547728,24.2122001 24.1934394,24.400778" id="Fill-1"></path>
        </g>
    </g>
</svg>